<svg width="334" height="102" viewBox="0 0 334 102" fill="none" xmlns="http://www.w3.org/2000/svg">
<path d="M41.1 97.1L41.7 65.4C41.7 61.4667 41.2 58.6 40.2 56.8C39.2667 55 37.3333 54.1 34.4 54.1C31.5333 54.1 28.7 55.8667 25.9 59.4C23.1 62.8667 21.6 66 21.4 68.8V97.1L28.9 97.7V100H2.1V97.7L8.7 97.1V54.5L0.5 54.1V52L21 50.8L20.5 61H21.5C25.3 54 30.9 50.5 38.3 50.5C47.1667 50.5 52.3333 54 53.8 61C55.6 57.6667 58 55.1 61 53.3C64 51.4333 67.2667 50.5 70.8 50.5C81.4667 50.5 86.8 55.6333 86.8 65.9C86.8 68.8333 86.5667 79.2333 86.1 97.1L93 97.7V100H68.8V97.7L73.6 97.1L74.2 65.4C74.2 61.4667 73.7 58.6 72.7 56.8C71.7 55 69.8333 54.1 67.1 54.1C64.4333 54.1 61.9 55.3667 59.5 57.9C57.1 60.4333 55.3667 63.1667 54.3 66.1C54.3 69.0333 54.0667 79.3667 53.6 97.1L60.5 97.7V100H36.3V97.7L41.1 97.1ZM132.101 65.1C132.101 56.9667 129.267 52.9 123.601 52.9C117.667 52.9 114.067 58.1 112.801 68.5H131.901C132.034 67.1667 132.101 66.0333 132.101 65.1ZM122.701 101.1C115.567 101.1 109.767 98.7667 105.301 94.1C100.901 89.4333 98.7008 83.2667 98.7008 75.6C98.7008 67.9333 101.001 61.7667 105.601 57.1C110.267 52.4333 116.167 50.1 123.301 50.1C130.434 50.1 135.767 51.6333 139.301 54.7C142.834 57.7 144.601 61.9 144.601 67.3C144.601 68.8333 144.467 70.4333 144.201 72.1H112.501V75.6C112.501 83.0667 113.434 88.7333 115.301 92.6C117.167 96.4 119.967 98.3 123.701 98.3C127.501 98.3 130.934 97.5333 134.001 96C137.134 94.4 139.567 92.1667 141.301 89.3C142.767 89.7667 143.501 90.4667 143.501 91.4C143.501 93.0667 141.934 95 138.801 97.2C137.267 98.2667 135.067 99.2 132.201 100C129.401 100.733 126.234 101.1 122.701 101.1ZM176.214 100H150.414V97.7L156.914 97.1V28.2L148.314 27.9V25.5L169.714 23.2V97.1L176.214 97.7V100ZM211.609 100H181.709V96.88L190.289 96.23V6.65999L178.719 6.13999V3.14999L203.029 0.419996V96.23L211.609 96.88V100ZM235.543 86.1C235.543 90.0333 236.009 92.9 236.943 94.7C237.943 96.5 239.909 97.4 242.843 97.4C245.776 97.4 248.676 95.5667 251.543 91.9C254.409 88.2333 255.843 85.0667 255.843 82.4V54.4L247.943 54V51.7L268.643 50.4V96.8L276.743 97.2V99.5L256.243 100.7L256.743 90.7H255.743C251.876 97.5667 246.276 101 238.943 101C228.276 101 222.943 95.8667 222.943 85.6C222.943 75.3333 223.309 64.9333 224.043 54.4L216.643 54V51.7L236.543 50.6C235.876 65.6667 235.543 77.5 235.543 86.1ZM326.743 93.9C322.076 98.7 315.709 101.1 307.643 101.1C299.576 101.1 293.209 98.7 288.543 93.9C283.876 89.1 281.543 83 281.543 75.6C281.543 68.2 283.876 62.1 288.543 57.3C293.209 52.5 299.576 50.1 307.643 50.1C315.709 50.1 322.076 52.5 326.743 57.3C331.409 62.1 333.743 68.2 333.743 75.6C333.743 83 331.409 89.1 326.743 93.9ZM295.443 75.6C295.443 91 299.509 98.7 307.643 98.7C315.776 98.7 319.843 91 319.843 75.6C319.843 68.0667 318.943 62.3667 317.143 58.5C315.343 54.5667 312.176 52.6 307.643 52.6C303.109 52.6 299.943 54.5667 298.143 58.5C296.343 62.3667 295.443 68.0667 295.443 75.6Z" fill="white"/>
</svg>
